<svg width="2301" height="1370" viewBox="0 0 2301 1370" fill="none" xmlns="http://www.w3.org/2000/svg">
<path d="M1004.62 826.8C1004.62 963.205 973.446 1149.14 753.356 1149.14C533.266 1149.14 22.3123 764.062 4.76934 609.418C-56.5375 68.9915 487.41 754.006 819.726 504.704C1083.82 394.689 1403.13 630.423 1004.62 826.8Z" fill="url(#paint0_radial_2_20)"/>
<ellipse cx="595.907" cy="689.767" rx="341.424" ry="376.978" fill="url(#paint1_radial_2_20)" fill-opacity="0.97"/>
<g filter="url(#filter0_bf_2_20)">
<ellipse cx="809.235" cy="862.572" rx="341.424" ry="376.978" fill="url(#paint2_radial_2_20)" fill-opacity="0.2"/>
</g>
<ellipse cx="811.228" cy="993.551" rx="241.738" ry="266.911" fill="url(#paint3_radial_2_20)"/>
<path d="M2282.59 355.164C2079.79 1117.93 1653.08 1718.89 1044.96 1054.46C1058.95 381.03 274.65 972.035 272.246 845.623C269.842 719.212 972.11 190.826 1242.37 184.561C1436.26 -136.833 1960.36 49.3938 2282.59 355.164Z" fill="url(#paint4_radial_2_20)"/>
<defs>
<filter id="filter0_bf_2_20" x="367.81" y="385.594" width="882.849" height="953.956" filterUnits="userSpaceOnUse" color-interpolation-filters="sRGB">
<feFlood flood-opacity="0" result="BackgroundImageFix"/>
<feGaussianBlur in="BackgroundImageFix" stdDeviation="20"/>
<feComposite in2="SourceAlpha" operator="in" result="effect1_backgroundBlur_2_20"/>
<feBlend mode="normal" in="SourceGraphic" in2="effect1_backgroundBlur_2_20" result="shape"/>
<feGaussianBlur stdDeviation="50" result="effect2_foregroundBlur_2_20"/>
</filter>
<radialGradient id="paint0_radial_2_20" cx="0" cy="0" r="1" gradientUnits="userSpaceOnUse" gradientTransform="translate(349.727 735.082) rotate(24.8996) scale(756.17 619.96)">
<stop offset="0.1125" stop-color="#81E768"/>
<stop offset="0.732292" stop-color="#68E7E7"/>
<stop offset="1" stop-color="#00EED1" stop-opacity="0"/>
</radialGradient>
<radialGradient id="paint1_radial_2_20" cx="0" cy="0" r="1" gradientUnits="userSpaceOnUse" gradientTransform="translate(401.519 807.538) rotate(18.2144) scale(505.307 548.129)">
<stop stop-color="#81E768"/>
<stop offset="0.594414" stop-color="#68E7E7"/>
<stop offset="1" stop-color="#BE00EE" stop-opacity="0"/>
</radialGradient>
<radialGradient id="paint2_radial_2_20" cx="0" cy="0" r="1" gradientUnits="userSpaceOnUse" gradientTransform="translate(781.821 819.095) rotate(45.56) scale(447.059 448.387)">
<stop offset="0.249912" stop-color="#81E768"/>
<stop offset="1" stop-color="#00EED1" stop-opacity="0"/>
</radialGradient>
<radialGradient id="paint3_radial_2_20" cx="0" cy="0" r="1" gradientUnits="userSpaceOnUse" gradientTransform="translate(750.918 1060.14) rotate(26.1029) scale(292.34 311.552)">
<stop stop-color="#A83CEB" stop-opacity="0.462469"/>
<stop offset="1" stop-color="#68E7E7"/>
</radialGradient>
<radialGradient id="paint4_radial_2_20" cx="0" cy="0" r="1" gradientUnits="userSpaceOnUse" gradientTransform="translate(511.096 714.099) rotate(8.6606) scale(1742.52 1128.28)">
<stop offset="0.1125" stop-color="#81E768"/>
<stop offset="0.527771" stop-color="#68E7E7"/>
<stop offset="0.779167" stop-color="#5B6D70" stop-opacity="0.46764"/>
<stop offset="1" stop-color="#655B6A" stop-opacity="0"/>
</radialGradient>
</defs>
</svg>
